<mxfile host="app.diagrams.net" agent="Mozilla/5.0 (Windows NT 10.0; Win64; x64) AppleWebKit/537.36 (KHTML, like Gecko) Chrome/127.0.0.0 Safari/537.36" version="24.7.6">
  <diagram name="페이지-1" id="5iYa75iAvnSAS26XuTEB">
    <mxGraphModel dx="1221" dy="733" grid="1" gridSize="10" guides="1" tooltips="1" connect="1" arrows="1" fold="1" page="1" pageScale="1" pageWidth="1169" pageHeight="827" math="0" shadow="0">
      <root>
        <mxCell id="0" />
        <mxCell id="1" parent="0" />
        <mxCell id="q9IKn5R6Y4CoZHb4cSiv-56" value="" style="group" vertex="1" connectable="0" parent="1">
          <mxGeometry x="80" y="40" width="1160" height="720" as="geometry" />
        </mxCell>
        <mxCell id="q9IKn5R6Y4CoZHb4cSiv-28" value="" style="group" vertex="1" connectable="0" parent="q9IKn5R6Y4CoZHb4cSiv-56">
          <mxGeometry width="560" height="720" as="geometry" />
        </mxCell>
        <mxCell id="q9IKn5R6Y4CoZHb4cSiv-11" value="명령문 3" style="rounded=1;whiteSpace=wrap;html=1;absoluteArcSize=1;arcSize=14;strokeWidth=2;fontSize=18;" vertex="1" parent="q9IKn5R6Y4CoZHb4cSiv-28">
          <mxGeometry x="440" y="360" width="120" height="80" as="geometry" />
        </mxCell>
        <mxCell id="q9IKn5R6Y4CoZHb4cSiv-27" value="" style="group" vertex="1" connectable="0" parent="q9IKn5R6Y4CoZHb4cSiv-28">
          <mxGeometry width="440" height="720" as="geometry" />
        </mxCell>
        <mxCell id="q9IKn5R6Y4CoZHb4cSiv-2" style="edgeStyle=orthogonalEdgeStyle;rounded=0;orthogonalLoop=1;jettySize=auto;html=1;" edge="1" parent="q9IKn5R6Y4CoZHb4cSiv-27" source="q9IKn5R6Y4CoZHb4cSiv-3" target="q9IKn5R6Y4CoZHb4cSiv-4">
          <mxGeometry relative="1" as="geometry" />
        </mxCell>
        <mxCell id="q9IKn5R6Y4CoZHb4cSiv-3" value="시작" style="rounded=1;whiteSpace=wrap;html=1;absoluteArcSize=1;arcSize=14;strokeWidth=2;fontSize=18;" vertex="1" parent="q9IKn5R6Y4CoZHb4cSiv-27">
          <mxGeometry x="280" width="120" height="80" as="geometry" />
        </mxCell>
        <mxCell id="q9IKn5R6Y4CoZHb4cSiv-4" value="명령문 1" style="rounded=1;whiteSpace=wrap;html=1;absoluteArcSize=1;arcSize=14;strokeWidth=2;fontSize=18;" vertex="1" parent="q9IKn5R6Y4CoZHb4cSiv-27">
          <mxGeometry x="280" y="120" width="120" height="80" as="geometry" />
        </mxCell>
        <mxCell id="q9IKn5R6Y4CoZHb4cSiv-6" value="조건 수식" style="strokeWidth=2;html=1;shape=mxgraph.flowchart.decision;whiteSpace=wrap;fontSize=18;" vertex="1" parent="q9IKn5R6Y4CoZHb4cSiv-27">
          <mxGeometry x="290" y="240" width="100" height="100" as="geometry" />
        </mxCell>
        <mxCell id="q9IKn5R6Y4CoZHb4cSiv-7" style="edgeStyle=orthogonalEdgeStyle;rounded=0;orthogonalLoop=1;jettySize=auto;html=1;exitX=0.5;exitY=1;exitDx=0;exitDy=0;entryX=0.5;entryY=0;entryDx=0;entryDy=0;entryPerimeter=0;" edge="1" parent="q9IKn5R6Y4CoZHb4cSiv-27" source="q9IKn5R6Y4CoZHb4cSiv-4" target="q9IKn5R6Y4CoZHb4cSiv-6">
          <mxGeometry relative="1" as="geometry" />
        </mxCell>
        <mxCell id="q9IKn5R6Y4CoZHb4cSiv-12" style="edgeStyle=orthogonalEdgeStyle;rounded=0;orthogonalLoop=1;jettySize=auto;html=1;exitX=0.5;exitY=1;exitDx=0;exitDy=0;entryX=0.5;entryY=0;entryDx=0;entryDy=0;" edge="1" parent="q9IKn5R6Y4CoZHb4cSiv-27" source="q9IKn5R6Y4CoZHb4cSiv-13">
          <mxGeometry relative="1" as="geometry">
            <mxPoint x="340" y="600" as="targetPoint" />
          </mxGeometry>
        </mxCell>
        <mxCell id="q9IKn5R6Y4CoZHb4cSiv-13" value="명령문 4" style="rounded=1;whiteSpace=wrap;html=1;absoluteArcSize=1;arcSize=14;strokeWidth=2;fontSize=18;" vertex="1" parent="q9IKn5R6Y4CoZHb4cSiv-27">
          <mxGeometry x="280" y="480" width="120" height="80" as="geometry" />
        </mxCell>
        <mxCell id="q9IKn5R6Y4CoZHb4cSiv-14" value="종료" style="rounded=1;whiteSpace=wrap;html=1;absoluteArcSize=1;arcSize=14;strokeWidth=2;fontSize=18;" vertex="1" parent="q9IKn5R6Y4CoZHb4cSiv-27">
          <mxGeometry x="280" y="600" width="120" height="80" as="geometry" />
        </mxCell>
        <mxCell id="q9IKn5R6Y4CoZHb4cSiv-15" style="edgeStyle=orthogonalEdgeStyle;rounded=0;orthogonalLoop=1;jettySize=auto;html=1;" edge="1" parent="q9IKn5R6Y4CoZHb4cSiv-27" source="q9IKn5R6Y4CoZHb4cSiv-16" target="q9IKn5R6Y4CoZHb4cSiv-17">
          <mxGeometry relative="1" as="geometry" />
        </mxCell>
        <mxCell id="q9IKn5R6Y4CoZHb4cSiv-16" value="시작" style="rounded=1;whiteSpace=wrap;html=1;absoluteArcSize=1;arcSize=14;strokeWidth=2;fontSize=18;" vertex="1" parent="q9IKn5R6Y4CoZHb4cSiv-27">
          <mxGeometry width="120" height="80" as="geometry" />
        </mxCell>
        <mxCell id="q9IKn5R6Y4CoZHb4cSiv-17" value="명령문 1" style="rounded=1;whiteSpace=wrap;html=1;absoluteArcSize=1;arcSize=14;strokeWidth=2;fontSize=18;" vertex="1" parent="q9IKn5R6Y4CoZHb4cSiv-27">
          <mxGeometry y="120" width="120" height="80" as="geometry" />
        </mxCell>
        <mxCell id="q9IKn5R6Y4CoZHb4cSiv-18" style="edgeStyle=orthogonalEdgeStyle;rounded=0;orthogonalLoop=1;jettySize=auto;html=1;exitX=0.5;exitY=1;exitDx=0;exitDy=0;exitPerimeter=0;entryX=0.5;entryY=0;entryDx=0;entryDy=0;" edge="1" parent="q9IKn5R6Y4CoZHb4cSiv-27" source="q9IKn5R6Y4CoZHb4cSiv-19" target="q9IKn5R6Y4CoZHb4cSiv-26">
          <mxGeometry relative="1" as="geometry">
            <mxPoint x="70" y="380" as="targetPoint" />
          </mxGeometry>
        </mxCell>
        <mxCell id="q9IKn5R6Y4CoZHb4cSiv-19" value="조건 수식" style="strokeWidth=2;html=1;shape=mxgraph.flowchart.decision;whiteSpace=wrap;fontSize=18;" vertex="1" parent="q9IKn5R6Y4CoZHb4cSiv-27">
          <mxGeometry x="10" y="240" width="100" height="100" as="geometry" />
        </mxCell>
        <mxCell id="q9IKn5R6Y4CoZHb4cSiv-20" style="edgeStyle=orthogonalEdgeStyle;rounded=0;orthogonalLoop=1;jettySize=auto;html=1;exitX=0.5;exitY=1;exitDx=0;exitDy=0;entryX=0.5;entryY=0;entryDx=0;entryDy=0;entryPerimeter=0;" edge="1" parent="q9IKn5R6Y4CoZHb4cSiv-27" source="q9IKn5R6Y4CoZHb4cSiv-17" target="q9IKn5R6Y4CoZHb4cSiv-19">
          <mxGeometry relative="1" as="geometry" />
        </mxCell>
        <mxCell id="q9IKn5R6Y4CoZHb4cSiv-21" style="edgeStyle=orthogonalEdgeStyle;rounded=0;orthogonalLoop=1;jettySize=auto;html=1;exitX=0.5;exitY=1;exitDx=0;exitDy=0;entryX=0.5;entryY=0;entryDx=0;entryDy=0;" edge="1" parent="q9IKn5R6Y4CoZHb4cSiv-27" source="q9IKn5R6Y4CoZHb4cSiv-22" target="q9IKn5R6Y4CoZHb4cSiv-23">
          <mxGeometry relative="1" as="geometry" />
        </mxCell>
        <mxCell id="q9IKn5R6Y4CoZHb4cSiv-22" value="명령문 4" style="rounded=1;whiteSpace=wrap;html=1;absoluteArcSize=1;arcSize=14;strokeWidth=2;fontSize=18;" vertex="1" parent="q9IKn5R6Y4CoZHb4cSiv-27">
          <mxGeometry y="520" width="120" height="80" as="geometry" />
        </mxCell>
        <mxCell id="q9IKn5R6Y4CoZHb4cSiv-23" value="종료" style="rounded=1;whiteSpace=wrap;html=1;absoluteArcSize=1;arcSize=14;strokeWidth=2;fontSize=18;" vertex="1" parent="q9IKn5R6Y4CoZHb4cSiv-27">
          <mxGeometry y="640" width="120" height="80" as="geometry" />
        </mxCell>
        <mxCell id="q9IKn5R6Y4CoZHb4cSiv-24" value="거짓" style="text;html=1;align=center;verticalAlign=middle;resizable=0;points=[];autosize=1;strokeColor=none;fillColor=none;fontSize=18;" vertex="1" parent="q9IKn5R6Y4CoZHb4cSiv-27">
          <mxGeometry x="380" y="293" width="60" height="40" as="geometry" />
        </mxCell>
        <mxCell id="q9IKn5R6Y4CoZHb4cSiv-25" value="참" style="text;html=1;align=center;verticalAlign=middle;resizable=0;points=[];autosize=1;strokeColor=none;fillColor=none;fontSize=18;" vertex="1" parent="q9IKn5R6Y4CoZHb4cSiv-27">
          <mxGeometry x="60" y="340" width="40" height="40" as="geometry" />
        </mxCell>
        <mxCell id="q9IKn5R6Y4CoZHb4cSiv-54" style="edgeStyle=orthogonalEdgeStyle;rounded=0;orthogonalLoop=1;jettySize=auto;html=1;entryX=0.5;entryY=0;entryDx=0;entryDy=0;" edge="1" parent="q9IKn5R6Y4CoZHb4cSiv-27" source="q9IKn5R6Y4CoZHb4cSiv-26" target="q9IKn5R6Y4CoZHb4cSiv-22">
          <mxGeometry relative="1" as="geometry" />
        </mxCell>
        <mxCell id="q9IKn5R6Y4CoZHb4cSiv-26" value="명령문 2" style="rounded=1;whiteSpace=wrap;html=1;absoluteArcSize=1;arcSize=14;strokeWidth=2;fontSize=18;" vertex="1" parent="q9IKn5R6Y4CoZHb4cSiv-27">
          <mxGeometry y="400" width="120" height="70" as="geometry" />
        </mxCell>
        <mxCell id="q9IKn5R6Y4CoZHb4cSiv-5" style="edgeStyle=orthogonalEdgeStyle;rounded=0;orthogonalLoop=1;jettySize=auto;html=1;exitX=1;exitY=0.5;exitDx=0;exitDy=0;exitPerimeter=0;entryX=0.5;entryY=0;entryDx=0;entryDy=0;entryPerimeter=0;" edge="1" parent="q9IKn5R6Y4CoZHb4cSiv-28" source="q9IKn5R6Y4CoZHb4cSiv-6" target="q9IKn5R6Y4CoZHb4cSiv-11">
          <mxGeometry relative="1" as="geometry">
            <mxPoint x="500" y="370" as="targetPoint" />
          </mxGeometry>
        </mxCell>
        <mxCell id="q9IKn5R6Y4CoZHb4cSiv-10" style="edgeStyle=orthogonalEdgeStyle;rounded=0;orthogonalLoop=1;jettySize=auto;html=1;entryX=1;entryY=0.5;entryDx=0;entryDy=0;exitX=0.5;exitY=1;exitDx=0;exitDy=0;" edge="1" parent="q9IKn5R6Y4CoZHb4cSiv-28" source="q9IKn5R6Y4CoZHb4cSiv-11" target="q9IKn5R6Y4CoZHb4cSiv-13">
          <mxGeometry relative="1" as="geometry">
            <mxPoint x="580" y="520" as="sourcePoint" />
            <mxPoint x="480" y="620" as="targetPoint" />
          </mxGeometry>
        </mxCell>
        <mxCell id="q9IKn5R6Y4CoZHb4cSiv-29" value="" style="group" vertex="1" connectable="0" parent="q9IKn5R6Y4CoZHb4cSiv-56">
          <mxGeometry x="600" width="560" height="720" as="geometry" />
        </mxCell>
        <mxCell id="q9IKn5R6Y4CoZHb4cSiv-30" value="data는 3보다 작거나 같은 수 입니다" style="rounded=1;whiteSpace=wrap;html=1;absoluteArcSize=1;arcSize=14;strokeWidth=2;fontSize=18;" vertex="1" parent="q9IKn5R6Y4CoZHb4cSiv-29">
          <mxGeometry x="440" y="360" width="120" height="80" as="geometry" />
        </mxCell>
        <mxCell id="q9IKn5R6Y4CoZHb4cSiv-31" value="" style="group" vertex="1" connectable="0" parent="q9IKn5R6Y4CoZHb4cSiv-29">
          <mxGeometry width="440" height="720" as="geometry" />
        </mxCell>
        <mxCell id="q9IKn5R6Y4CoZHb4cSiv-32" style="edgeStyle=orthogonalEdgeStyle;rounded=0;orthogonalLoop=1;jettySize=auto;html=1;" edge="1" parent="q9IKn5R6Y4CoZHb4cSiv-31" source="q9IKn5R6Y4CoZHb4cSiv-33" target="q9IKn5R6Y4CoZHb4cSiv-34">
          <mxGeometry relative="1" as="geometry" />
        </mxCell>
        <mxCell id="q9IKn5R6Y4CoZHb4cSiv-33" value="시작" style="rounded=1;whiteSpace=wrap;html=1;absoluteArcSize=1;arcSize=14;strokeWidth=2;fontSize=18;" vertex="1" parent="q9IKn5R6Y4CoZHb4cSiv-31">
          <mxGeometry x="280" width="120" height="80" as="geometry" />
        </mxCell>
        <mxCell id="q9IKn5R6Y4CoZHb4cSiv-34" value="data=2" style="rounded=1;whiteSpace=wrap;html=1;absoluteArcSize=1;arcSize=14;strokeWidth=2;fontSize=18;" vertex="1" parent="q9IKn5R6Y4CoZHb4cSiv-31">
          <mxGeometry x="280" y="120" width="120" height="80" as="geometry" />
        </mxCell>
        <mxCell id="q9IKn5R6Y4CoZHb4cSiv-35" value="data&amp;gt;3" style="strokeWidth=2;html=1;shape=mxgraph.flowchart.decision;whiteSpace=wrap;fontSize=18;" vertex="1" parent="q9IKn5R6Y4CoZHb4cSiv-31">
          <mxGeometry x="290" y="240" width="100" height="100" as="geometry" />
        </mxCell>
        <mxCell id="q9IKn5R6Y4CoZHb4cSiv-36" style="edgeStyle=orthogonalEdgeStyle;rounded=0;orthogonalLoop=1;jettySize=auto;html=1;exitX=0.5;exitY=1;exitDx=0;exitDy=0;entryX=0.5;entryY=0;entryDx=0;entryDy=0;entryPerimeter=0;" edge="1" parent="q9IKn5R6Y4CoZHb4cSiv-31" source="q9IKn5R6Y4CoZHb4cSiv-34" target="q9IKn5R6Y4CoZHb4cSiv-35">
          <mxGeometry relative="1" as="geometry" />
        </mxCell>
        <mxCell id="q9IKn5R6Y4CoZHb4cSiv-37" style="edgeStyle=orthogonalEdgeStyle;rounded=0;orthogonalLoop=1;jettySize=auto;html=1;exitX=0.5;exitY=1;exitDx=0;exitDy=0;entryX=0.5;entryY=0;entryDx=0;entryDy=0;" edge="1" parent="q9IKn5R6Y4CoZHb4cSiv-31" source="q9IKn5R6Y4CoZHb4cSiv-38">
          <mxGeometry relative="1" as="geometry">
            <mxPoint x="340" y="600" as="targetPoint" />
          </mxGeometry>
        </mxCell>
        <mxCell id="q9IKn5R6Y4CoZHb4cSiv-38" value="작업 종료" style="rounded=1;whiteSpace=wrap;html=1;absoluteArcSize=1;arcSize=14;strokeWidth=2;fontSize=18;" vertex="1" parent="q9IKn5R6Y4CoZHb4cSiv-31">
          <mxGeometry x="280" y="480" width="120" height="80" as="geometry" />
        </mxCell>
        <mxCell id="q9IKn5R6Y4CoZHb4cSiv-39" value="종료" style="rounded=1;whiteSpace=wrap;html=1;absoluteArcSize=1;arcSize=14;strokeWidth=2;fontSize=18;" vertex="1" parent="q9IKn5R6Y4CoZHb4cSiv-31">
          <mxGeometry x="280" y="600" width="120" height="80" as="geometry" />
        </mxCell>
        <mxCell id="q9IKn5R6Y4CoZHb4cSiv-40" style="edgeStyle=orthogonalEdgeStyle;rounded=0;orthogonalLoop=1;jettySize=auto;html=1;" edge="1" parent="q9IKn5R6Y4CoZHb4cSiv-31" source="q9IKn5R6Y4CoZHb4cSiv-41" target="q9IKn5R6Y4CoZHb4cSiv-42">
          <mxGeometry relative="1" as="geometry" />
        </mxCell>
        <mxCell id="q9IKn5R6Y4CoZHb4cSiv-41" value="시작" style="rounded=1;whiteSpace=wrap;html=1;absoluteArcSize=1;arcSize=14;strokeWidth=2;fontSize=18;" vertex="1" parent="q9IKn5R6Y4CoZHb4cSiv-31">
          <mxGeometry width="120" height="80" as="geometry" />
        </mxCell>
        <mxCell id="q9IKn5R6Y4CoZHb4cSiv-42" value="data=5" style="rounded=1;whiteSpace=wrap;html=1;absoluteArcSize=1;arcSize=14;strokeWidth=2;fontSize=18;" vertex="1" parent="q9IKn5R6Y4CoZHb4cSiv-31">
          <mxGeometry y="120" width="120" height="80" as="geometry" />
        </mxCell>
        <mxCell id="q9IKn5R6Y4CoZHb4cSiv-43" style="edgeStyle=orthogonalEdgeStyle;rounded=0;orthogonalLoop=1;jettySize=auto;html=1;exitX=0.5;exitY=1;exitDx=0;exitDy=0;exitPerimeter=0;entryX=0.5;entryY=0;entryDx=0;entryDy=0;" edge="1" parent="q9IKn5R6Y4CoZHb4cSiv-31" source="q9IKn5R6Y4CoZHb4cSiv-44" target="q9IKn5R6Y4CoZHb4cSiv-51">
          <mxGeometry relative="1" as="geometry">
            <mxPoint x="70" y="380" as="targetPoint" />
          </mxGeometry>
        </mxCell>
        <mxCell id="q9IKn5R6Y4CoZHb4cSiv-44" value="data&amp;gt;3" style="strokeWidth=2;html=1;shape=mxgraph.flowchart.decision;whiteSpace=wrap;fontSize=18;" vertex="1" parent="q9IKn5R6Y4CoZHb4cSiv-31">
          <mxGeometry x="10" y="240" width="100" height="100" as="geometry" />
        </mxCell>
        <mxCell id="q9IKn5R6Y4CoZHb4cSiv-45" style="edgeStyle=orthogonalEdgeStyle;rounded=0;orthogonalLoop=1;jettySize=auto;html=1;exitX=0.5;exitY=1;exitDx=0;exitDy=0;entryX=0.5;entryY=0;entryDx=0;entryDy=0;entryPerimeter=0;" edge="1" parent="q9IKn5R6Y4CoZHb4cSiv-31" source="q9IKn5R6Y4CoZHb4cSiv-42" target="q9IKn5R6Y4CoZHb4cSiv-44">
          <mxGeometry relative="1" as="geometry" />
        </mxCell>
        <mxCell id="q9IKn5R6Y4CoZHb4cSiv-46" style="edgeStyle=orthogonalEdgeStyle;rounded=0;orthogonalLoop=1;jettySize=auto;html=1;exitX=0.5;exitY=1;exitDx=0;exitDy=0;entryX=0.5;entryY=0;entryDx=0;entryDy=0;" edge="1" parent="q9IKn5R6Y4CoZHb4cSiv-31" source="q9IKn5R6Y4CoZHb4cSiv-47" target="q9IKn5R6Y4CoZHb4cSiv-48">
          <mxGeometry relative="1" as="geometry" />
        </mxCell>
        <mxCell id="q9IKn5R6Y4CoZHb4cSiv-47" value="작업 종료" style="rounded=1;whiteSpace=wrap;html=1;absoluteArcSize=1;arcSize=14;strokeWidth=2;fontSize=18;" vertex="1" parent="q9IKn5R6Y4CoZHb4cSiv-31">
          <mxGeometry y="520" width="120" height="80" as="geometry" />
        </mxCell>
        <mxCell id="q9IKn5R6Y4CoZHb4cSiv-48" value="종료" style="rounded=1;whiteSpace=wrap;html=1;absoluteArcSize=1;arcSize=14;strokeWidth=2;fontSize=18;" vertex="1" parent="q9IKn5R6Y4CoZHb4cSiv-31">
          <mxGeometry y="640" width="120" height="80" as="geometry" />
        </mxCell>
        <mxCell id="q9IKn5R6Y4CoZHb4cSiv-49" value="거짓" style="text;html=1;align=center;verticalAlign=middle;resizable=0;points=[];autosize=1;strokeColor=none;fillColor=none;fontSize=18;" vertex="1" parent="q9IKn5R6Y4CoZHb4cSiv-31">
          <mxGeometry x="380" y="293" width="60" height="40" as="geometry" />
        </mxCell>
        <mxCell id="q9IKn5R6Y4CoZHb4cSiv-50" value="참" style="text;html=1;align=center;verticalAlign=middle;resizable=0;points=[];autosize=1;strokeColor=none;fillColor=none;fontSize=18;" vertex="1" parent="q9IKn5R6Y4CoZHb4cSiv-31">
          <mxGeometry x="60" y="340" width="40" height="40" as="geometry" />
        </mxCell>
        <mxCell id="q9IKn5R6Y4CoZHb4cSiv-55" value="" style="edgeStyle=orthogonalEdgeStyle;rounded=0;orthogonalLoop=1;jettySize=auto;html=1;" edge="1" parent="q9IKn5R6Y4CoZHb4cSiv-31" source="q9IKn5R6Y4CoZHb4cSiv-51" target="q9IKn5R6Y4CoZHb4cSiv-47">
          <mxGeometry relative="1" as="geometry" />
        </mxCell>
        <mxCell id="q9IKn5R6Y4CoZHb4cSiv-51" value="data는 3보다&lt;div&gt;큰 수 입니다&lt;/div&gt;" style="rounded=1;whiteSpace=wrap;html=1;absoluteArcSize=1;arcSize=14;strokeWidth=2;fontSize=18;" vertex="1" parent="q9IKn5R6Y4CoZHb4cSiv-31">
          <mxGeometry y="400" width="120" height="80" as="geometry" />
        </mxCell>
        <mxCell id="q9IKn5R6Y4CoZHb4cSiv-52" style="edgeStyle=orthogonalEdgeStyle;rounded=0;orthogonalLoop=1;jettySize=auto;html=1;exitX=1;exitY=0.5;exitDx=0;exitDy=0;exitPerimeter=0;entryX=0.5;entryY=0;entryDx=0;entryDy=0;entryPerimeter=0;" edge="1" parent="q9IKn5R6Y4CoZHb4cSiv-29" source="q9IKn5R6Y4CoZHb4cSiv-35" target="q9IKn5R6Y4CoZHb4cSiv-30">
          <mxGeometry relative="1" as="geometry">
            <mxPoint x="500" y="370" as="targetPoint" />
          </mxGeometry>
        </mxCell>
        <mxCell id="q9IKn5R6Y4CoZHb4cSiv-53" style="edgeStyle=orthogonalEdgeStyle;rounded=0;orthogonalLoop=1;jettySize=auto;html=1;entryX=1;entryY=0.5;entryDx=0;entryDy=0;exitX=0.5;exitY=1;exitDx=0;exitDy=0;" edge="1" parent="q9IKn5R6Y4CoZHb4cSiv-29" source="q9IKn5R6Y4CoZHb4cSiv-30" target="q9IKn5R6Y4CoZHb4cSiv-38">
          <mxGeometry relative="1" as="geometry">
            <mxPoint x="580" y="520" as="sourcePoint" />
            <mxPoint x="480" y="620" as="targetPoint" />
          </mxGeometry>
        </mxCell>
      </root>
    </mxGraphModel>
  </diagram>
</mxfile>
